<mxfile host="app.diagrams.net" modified="2024-01-14T13:20:07.020Z" agent="Mozilla/5.0 (Windows NT 10.0; Win64; x64) AppleWebKit/537.36 (KHTML, like Gecko) Chrome/120.0.0.0 Safari/537.36 Edg/120.0.0.0" version="22.1.18" etag="xrbjR0I_t0frlwFQQq0G" type="github">
  <diagram name="Trang-1" id="ue-PVzVK6_c3LgEE7neb">
    <mxGraphModel>
      <root>
        <mxCell id="0" />
        <mxCell id="1" parent="0" />
      </root>
    </mxGraphModel>
  </diagram>
</mxfile>
